<?xml version="1.0" encoding="UTF-8" standalone="no"?>
<!-- Created with Inkscape (http://www.inkscape.org/) -->

<svg
   width="55.880001mm"
   height="128.5mm"
   viewBox="0 0 55.880436 128.501"
   version="1.1"
   id="svg8"
   inkscape:version="1.4 (e7c3feb100, 2024-10-09)"
   sodipodi:docname="panel-11.svg"
   xmlns:inkscape="http://www.inkscape.org/namespaces/inkscape"
   xmlns:sodipodi="http://sodipodi.sourceforge.net/DTD/sodipodi-0.dtd"
   xmlns="http://www.w3.org/2000/svg"
   xmlns:svg="http://www.w3.org/2000/svg"
   xmlns:rdf="http://www.w3.org/1999/02/22-rdf-syntax-ns#"
   xmlns:cc="http://creativecommons.org/ns#"
   xmlns:dc="http://purl.org/dc/elements/1.1/">
  <defs
     id="defs2">
    <style
       id="style97"
       type="text/css"><![CDATA[
    .fil0 {fill:#229BD0}
    .fil1 {fill:#4D4D4D;fill-rule:nonzero}
   ]]></style>
  </defs>
  <sodipodi:namedview
     id="base"
     pagecolor="#ffffff"
     bordercolor="#666666"
     borderopacity="1.0"
     inkscape:pageopacity="0.0"
     inkscape:pageshadow="2"
     inkscape:zoom="1.159225"
     inkscape:cx="105.67405"
     inkscape:cy="241.97201"
     inkscape:document-units="mm"
     inkscape:current-layer="layer1"
     showgrid="false"
     units="px"
     inkscape:snap-bbox="true"
     inkscape:snap-page="true"
     inkscape:bbox-nodes="true"
     inkscape:snap-bbox-edge-midpoints="true"
     inkscape:window-width="1477"
     inkscape:window-height="772"
     inkscape:window-x="0"
     inkscape:window-y="0"
     inkscape:window-maximized="1"
     inkscape:showpageshadow="2"
     inkscape:pagecheckerboard="true"
     inkscape:deskcolor="#d1d1d1"
     inkscape:clip-to-page="true" />
  <metadata
     id="metadata5">
    <rdf:RDF>
      <cc:Work
         rdf:about="">
        <dc:format>image/svg+xml</dc:format>
        <dc:type
           rdf:resource="http://purl.org/dc/dcmitype/StillImage" />
      </cc:Work>
    </rdf:RDF>
  </metadata>
  <g
     inkscape:label="Layer 1"
     inkscape:groupmode="layer"
     id="layer1"
     transform="translate(0,-196.45832)">
    <path
       style="opacity:1;vector-effect:none;fill:#e6e6e6;fill-opacity:1;fill-rule:evenodd;stroke:none;stroke-width:0.838896;stroke-linecap:butt;stroke-linejoin:round;stroke-miterlimit:4;stroke-dasharray:none;stroke-dashoffset:0;stroke-opacity:1;paint-order:normal"
       d="M 0,196.98748 H 55.545089 V 325.37485 H 0 Z"
       id="rect817"
       inkscape:connector-curvature="0" />
    <g
       aria-label="out"
       style="color:#000000;font-style:normal;font-variant:normal;font-weight:normal;font-stretch:normal;font-size:4.23333px;line-height:125%;font-family:Sans;-inkscape-font-specification:Sans;text-indent:0;text-align:start;text-decoration:none;text-decoration-line:none;letter-spacing:0px;word-spacing:0px;text-transform:none;writing-mode:lr-tb;direction:ltr;baseline-shift:baseline;text-anchor:start;display:inline;overflow:visible;visibility:visible;fill:#ffffff;fill-opacity:1;fill-rule:nonzero;stroke:none;stroke-width:0.264583px;stroke-linecap:butt;stroke-linejoin:miter;stroke-opacity:1;marker:none;enable-background:accumulate"
       id="text4546"
       transform="translate(-27.67754,12.016514)">
      <path
         d="m 86.926157,263.16071 q -0.305925,0 -0.483692,0.23978 -0.177767,0.23771 -0.177767,0.65319 0,0.41548 0.1757,0.65526 0.177767,0.23771 0.485759,0.23771 0.303857,0 0.481624,-0.23978 0.177767,-0.23978 0.177767,-0.65319 0,-0.41134 -0.177767,-0.65112 -0.177767,-0.24185 -0.481624,-0.24185 z m 0,-0.32246 q 0.496093,0 0.77928,0.32246 0.283187,0.32246 0.283187,0.89297 0,0.56844 -0.283187,0.89297 -0.283187,0.32246 -0.77928,0.32246 -0.498161,0 -0.781348,-0.32246 -0.28112,-0.32453 -0.28112,-0.89297 0,-0.57051 0.28112,-0.89297 0.283187,-0.32246 0.781348,-0.32246 z"
         style="font-size:4.23333px;fill:#ffffff;fill-opacity:1;stroke-width:0.264583px"
         id="path4548"
         inkscape:connector-curvature="0" />
      <path
         d="m 88.577735,264.29553 v -1.40147 h 0.380339 v 1.387 q 0,0.32866 0.128157,0.49403 0.128158,0.16329 0.384473,0.16329 0.307991,0 0.485758,-0.19637 0.179834,-0.19637 0.179834,-0.53537 v -1.31258 h 0.380339 v 2.31511 h -0.380339 v -0.35554 q -0.138493,0.21084 -0.322461,0.3142 -0.181901,0.10128 -0.423746,0.10128 -0.398942,0 -0.605648,-0.24804 -0.206706,-0.24805 -0.206706,-0.72554 z m 0.957048,-1.45728 z"
         style="font-size:4.23333px;fill:#ffffff;fill-opacity:1;stroke-width:0.264583px"
         id="path4550"
         inkscape:connector-curvature="0" />
      <path
         d="m 91.680388,262.23674 v 0.65732 h 0.783415 v 0.29559 h -0.783415 v 1.25677 q 0,0.28319 0.07648,0.36381 0.07855,0.0806 0.31626,0.0806 h 0.390674 v 0.31833 h -0.390674 q -0.440283,0 -0.607715,-0.1633 -0.167432,-0.16536 -0.167432,-0.59945 v -1.25677 H 91.01893 v -0.29559 h 0.279052 v -0.65732 z"
         style="font-size:4.23333px;fill:#ffffff;fill-opacity:1;stroke-width:0.264583px"
         id="path4552"
         inkscape:connector-curvature="0" />
    </g>
  </g>
</svg>
